#!OML:ASF E:/inclinewalkrobotboard/Project1/Captureday1/Session1/subject1.ASF
:FULLY-SPECIFIED
:DEGREES
326
root 0 0 0 -0.8395908234056475 -6.265726871439245 -7.392200687637491
lowerback 10.466107403469703 2.0619745293869256 6.509506405712784
upperback 0.7513939350263984 3.5873606545057894 1.9702955238610897
thorax -4.855896722378181 1.6323616987662668 -2.116338907452924
lowerneck -18.010707460635302 -3.0270973765996843 -1.8112711487603375
upperneck 18.501976970139538 -3.794571681861873 0.2985012057952503
head 8.722173917362877 -1.8620898987710475 -0.10166167758808364
rclavicle -7.621721303142944E-15 7.814096223391977E-16
rhumerus -29.822926259227323 -14.917503604728218 -81.11216588929372
rradius 26.242579884768247
rwrist 2.453826125283741
rhand -18.789951245265044 26.482335796984586
rfingers 7.12502000000001
rthumb 7.505747932495624 -3.378626011452546
lclavicle -8.04243193187247E-15 2.496257472926394E-16
lhumerus -33.99658672985555 1.7721322563888615 84.50968853254656
lradius 25.118744329793685
lwrist 5.6390940743900195
lhand -27.574146440620872 24.708897884707334
lfingers 7.12502000000003
lthumb -0.976976125424633 54.71283726421268
rfemur 5.954074465717038 8.75371535250398 36.05214343856514
rtibia 24.07977478042081
rfoot -21.391079476825976 -5.1660575125640715
rtoes -1.0324170394612493
lfemur -26.643748260489826 -4.312052089418498 -12.649384186511156
ltibia 21.34000129840556
lfoot -5.108328440739992 3.8526153608037093
ltoes 0.33609764606926973
327
root 0 0 0 -0.9331332449812167 -6.274928573145077 -7.218487963738083
lowerback 10.378550349419479 2.1187565985910837 6.371399071191052
upperback 0.7258992299945157 3.6407374163533666 1.908395483596058
thorax -4.836231321162094 1.6628534425982182 -2.106990115716341
lowerneck -18.007053260891926 -3.039821932694379 -1.8335747309805552
upperneck 18.470890518688606 -3.819953133186022 0.358017729781682
head 8.712238055780492 -1.8698890525317446 -0.08090861438500874
rclavicle -8.633536638741705E-15 -1.2223804308627228E-15
rhumerus -30.115999725104228 -15.581074999565153 -80.83371626602496
rradius 25.664540093501195
rwrist 2.800034528616318
rhand -18.730972980363575 26.41784025260796
rfingers 7.125020000000011
rthumb 7.562838616532943 -3.434050560126863
lclavicle -9.250238536270497E-15 -1.8247559726281272E-15
lhumerus -35.06562018710002 2.9970626808635683 84.00297249735232
lradius 24.23307331646131
lwrist 4.922110489237423
lhand -27.346388821766574 24.43066290393061
lfingers 7.125020000000033
lthumb -0.7558772298674379 54.43100684117215
rfemur 9.011022935654761 8.738585828857916 36.42302036935266
rtibia 25.490043246654608
rfoot -20.029757916796257 -4.097831053703483
rtoes -5.111672498624034
lfemur -26.53968776233361 -4.367467086433091 -12.896545644188784
ltibia 21.496671037769225
lfoot -4.953244299979165 3.45280167272035
ltoes 0.3228795032075489
328
root 0 0 0 -1.2864214142024264 -6.237767364452951 -6.778441161024528
lowerback 10.372410321435256 2.1490315089166097 6.010631281680815
upperback 0.6568966583600746 3.6442077258219445 1.8453382777115972
thorax -4.913190862903936 1.6741546246476193 -1.9650610736355447
lowerneck -18.121856818689814 -3.1352505382741325 -1.9036360040021707
upperneck 19.06309923416439 -3.9713792932399463 0.4473516038312435
head 8.951461994894826 -1.9264668547987225 -0.06287059570508757
rclavicle -8.915880825100057E-15 -1.9312416631421035E-15
rhumerus -30.727944407208348 -16.627194758436943 -80.47618490678465
rradius 24.67788023996515
rwrist 3.6291016224964006
rhand -18.611902309297232 26.304565970564852
rfingers 7.125020000000013
rthumb 7.677584436324146 -3.5419315255504387
lclavicle -1.0040045089948652E-14 -2.5284149812944504E-15
lhumerus -36.779247925341174 4.999033968769681 82.67218654783034
lradius 23.067966303495517
lwrist 3.6855370376702528
lhand -26.767011284876894 24.097097588935114
lfingers 7.125020000000029
lthumb -0.1969812000059319 54.083792318037716
rfemur 8.939183274478271 7.240362757172996 33.92163228581531
rtibia 31.319642088247747
rfoot -15.900175359551584 -2.5534995701175194
rtoes -5.23908864564688
lfemur -26.422309947752034 -3.782401357520116 -13.557587244151762
ltibia 22.065442617160244
lfoot -4.746471586411571 2.5387230210571032
ltoes 0.4080229124545873
329
root 0 0 0 -1.8885725149656563 -6.198997490474132 -5.699092305448418
lowerback 10.526865502907215 2.1552688828601605 5.096163413199444
upperback 0.5370858446618639 3.552346643047171 1.6597224905620518
thorax -5.152795087096619 1.6497547935473336 -1.6306796359220175
lowerneck -18.050620946815727 -3.2853932409720876 -1.960985825656842
upperneck 19.477599221407765 -4.1861137911495705 0.5547338504227441
head 9.103129217585776 -2.0176572531697814 -0.04445675751032235
rclavicle -7.068233350723757E-15 -1.7040479750250062E-15
rhumerus -31.405400251484323 -17.826063609181716 -80.08528951401244
rradius 23.57608898178765
rwrist 4.5420258401692495
rhand -18.453402831154012 26.21520248533016
rfingers 7.125020000000015
rthumb 7.830013670804911 -3.6231769485201326
lclavicle -8.199741023040639E-15 -2.205215055134427E-15
lhumerus -38.49349680724144 7.2232412691183026 80.99285978679724
lradius 21.86023661144977
lwrist 2.462887085789269
lhand -26.1795436234779 23.976905119276363
lfingers 7.125020000000025
lthumb 0.36804807559467445 53.95298147698138
rfemur 2.093786845782879 4.2249085821162256 26.65662151161331
rtibia 41.20483178819567
rfoot -4.7692483316026655 -0.7325089835426812
rtoes -3.2637794005947613
lfemur -25.996972329936177 -3.0537694751511144 -14.331472739733172
ltibia 22.706134505465307
lfoot -4.753007666635881 1.6555675924130306
ltoes 0.3434223400248513
